<svg xmlns="http://www.w3.org/2000/svg" viewBox="0 0 420 90" fill="none">
  <g transform="translate(45, 65)">
    <line x1="0" y1="0" x2="-38" y2="-55" stroke="#C9A84C" stroke-width="1.2"/>
    <line x1="0" y1="0" x2="-33" y2="-57" stroke="#C9A84C" stroke-width="1.2"/>
    <line x1="0" y1="0" x2="-28" y2="-59" stroke="#C9A84C" stroke-width="1.2"/>
    <line x1="0" y1="0" x2="-23" y2="-60" stroke="#C9A84C" stroke-width="1.2"/>
    <line x1="0" y1="0" x2="-18" y2="-61" stroke="#C9A84C" stroke-width="1.2"/>
    <line x1="0" y1="0" x2="-13" y2="-62" stroke="#C9A84C" stroke-width="1.2"/>
    <line x1="0" y1="0" x2="-8" y2="-63" stroke="#C9A84C" stroke-width="1.2"/>
    <line x1="0" y1="0" x2="-3" y2="-63" stroke="#C9A84C" stroke-width="1.2"/>
    <line x1="0" y1="0" x2="3" y2="-63" stroke="#C9A84C" stroke-width="1.2"/>
    <line x1="0" y1="0" x2="8" y2="-63" stroke="#C9A84C" stroke-width="1.2"/>
    <line x1="0" y1="0" x2="13" y2="-62" stroke="#C9A84C" stroke-width="1.2"/>
    <line x1="0" y1="0" x2="18" y2="-61" stroke="#C9A84C" stroke-width="1.2"/>
    <line x1="0" y1="0" x2="23" y2="-60" stroke="#C9A84C" stroke-width="1.2"/>
    <line x1="0" y1="0" x2="28" y2="-59" stroke="#C9A84C" stroke-width="1.2"/>
    <line x1="0" y1="0" x2="33" y2="-57" stroke="#C9A84C" stroke-width="1.2"/>
    <line x1="0" y1="0" x2="38" y2="-55" stroke="#C9A84C" stroke-width="1.2"/>
    <line x1="-42" y1="0" x2="42" y2="0" stroke="#C9A84C" stroke-width="1.2"/>
  </g>
  <text x="105" y="38" style="font-family:Georgia,'Times New Roman',serif;font-size:28px;font-weight:400;letter-spacing:5px" fill="#2D3028">SUN STREET</text>
  <text x="105" y="62" style="font-family:Georgia,'Times New Roman',serif;font-size:15px;font-weight:300;letter-spacing:9px" fill="#2D3028">PROPERTIES</text>
</svg>
